inDegrees=no
num_controls=7
num_derivatives=13
num_iterations=80
num_multipliers=7
num_parameters=0
num_slacks=7
num_states=26
objective=0.453644
objective_accelerations=0.003704
objective_balance=0.002135
objective_effort=0.003888
objective_height=0.419918
objective_ligament=0.023998
solver_duration=1113.603911
status=Solve_Succeeded
success=true
DataType=double
version=3
OpenSimVersion=4.5
endheader
time	/jointset/ground_pelvis/pelvis_tilt/value	/jointset/ground_pelvis/pelvis_tx/value	/jointset/ground_pelvis/pelvis_ty/value	/jointset/hip_l/hip_flexion_l/value	/jointset/hip_l/hip_adduction_l/value	/jointset/hip_l/hip_rotation_l/value	/jointset/back/lumbar_extension/value	/jointset/patellofemoral_l/patellar_flexion_l/value	/jointset/knee_l/knee_flexion_l/value	/jointset/knee_l/knee_adduction_l/value	/jointset/knee_l/knee_rotation_l/value	/jointset/ankle_l/ankle_angle_l/value	/jointset/subtalar_l/subtalar_angle_l/value	/jointset/ground_pelvis/pelvis_tilt/speed	/jointset/ground_pelvis/pelvis_tx/speed	/jointset/ground_pelvis/pelvis_ty/speed	/jointset/hip_l/hip_flexion_l/speed	/jointset/hip_l/hip_adduction_l/speed	/jointset/hip_l/hip_rotation_l/speed	/jointset/back/lumbar_extension/speed	/jointset/patellofemoral_l/patellar_flexion_l/speed	/jointset/knee_l/knee_flexion_l/speed	/jointset/knee_l/knee_adduction_l/speed	/jointset/knee_l/knee_rotation_l/speed	/jointset/ankle_l/ankle_angle_l/speed	/jointset/subtalar_l/subtalar_angle_l/speed	/forceset/tau_hip_flexion_l	/forceset/tau_hip_adduction_l	/forceset/tau_hip_rotation_l	/forceset/tau_knee_flexion_l	/forceset/tau_ankle_angle_l	/forceset/tau_subtalar_angle_l	/forceset/tau_lumbar_extension	lambda_cid13_p0	lambda_cid13_p1	lambda_cid13_p2	lambda_cid13_p3	lambda_cid13_p4	lambda_cid13_p5	lambda_cid14_p0	/jointset/ground_pelvis/pelvis_tilt/accel	/jointset/ground_pelvis/pelvis_tx/accel	/jointset/ground_pelvis/pelvis_ty/accel	/jointset/hip_l/hip_flexion_l/accel	/jointset/hip_l/hip_adduction_l/accel	/jointset/hip_l/hip_rotation_l/accel	/jointset/back/lumbar_extension/accel	/jointset/patellofemoral_l/patellar_flexion_l/accel	/jointset/knee_l/knee_flexion_l/accel	/jointset/knee_l/knee_adduction_l/accel	/jointset/knee_l/knee_rotation_l/accel	/jointset/ankle_l/ankle_angle_l/accel	/jointset/subtalar_l/subtalar_angle_l/accel	gamma_cid13_p0	gamma_cid13_p1	gamma_cid13_p2	gamma_cid13_p3	gamma_cid13_p4	gamma_cid13_p5	gamma_cid14_p0
0.5	0.04589330603411957	0.11055710671089	0.91000345686666	0.1313253293387433	-0.2788541518569034	-0.2910729420215944	-0.2005897222927609	0.1802146138741124	0.1802146138739935	0.009660099018484792	-0.1716568277117786	0.1032711854487934	0.1855083255665161	-0.1273454577589024	0.05761365962452859	-0.001524816061489673	0.01983515603420125	0.02842037171886674	-0.0367557316127675	0.06735009782887251	-0.09336740235488392	-0.09336740235488064	0.03231685711923396	0.01007535612067365	0.02228430185848226	0.04154844083981851	0.04521528050647534	0.04918366212074027	-0.003687324056641361	-0.1325589753305106	0.07083704194540529	-0.06805307185319767	0.01034521763287494	-9.970792052130824	29.99399079198679	-3.569654221660481	1.143992603141156	-461.545747693909	-23.50149386329176	-25.48478105562894	-0.08454948772226725	-0.01230731046639864	-0.002215314991326207	0.03657335942855164	0.04453982214151087	-0.03171309388459478	0.1781966266026151	-0.1468810485409964	-0.1468810485409994	0.03984066253218589	0.01580767970831869	-0.08898423582862894	0.01786108628860977	-1.218445115852134e-09	2.698924617054177e-09	-1.153097730215159e-09	1.082811841389668e-09	-1.941727776149494e-09	2.85621103043771e-09	-3.079556926055979e-11
0.51	0.04461566254846104	0.1111325904055611	0.9099880902102239	0.1315255851736372	-0.2785677474074755	-0.2914420809414327	-0.1999072957174018	0.1792737247681903	0.1792737247678639	0.009985245645360097	-0.1715553333421998	0.1034895936632542	0.1859246777859852	-0.1281768745754753	0.05747958410408351	-0.001548483736410655	0.02021490568401219	0.02885898319412505	-0.03706933238925031	0.06913471532458923	-0.0948073105288378	-0.09480731052883547	0.03270973994641684	0.01022359937519579	0.0213945674979733	0.04171901928254362	0.04474096908481672	0.04954383569451832	-0.003727702918146014	-0.1313036034340563	0.06947690543149479	-0.06793575954781562	0.01057633437944876	-10.39337177982521	29.95457049081266	-3.492022669213285	1.256253118516762	-461.5260780091505	-23.44406289332634	-25.47597560585443	-0.08148310467283976	-0.01448174199155651	-0.002438165682622355	0.03850988419946387	0.04329162896129796	-0.03077531376826003	0.1785190242572468	-0.1420794473265529	-0.1420794473276205	0.03860306655020927	0.01434463392491657	-0.08938418028582996	0.01620840256379718	-1.212930656687601e-09	2.680141234694637e-09	-1.154408493102744e-09	1.080660272371529e-09	-1.901749675147774e-09	2.837166190153295e-09	-2.903574850741728e-11
0.52	0.04332989582949846	0.1117066285311908	0.9099724877426396	0.1317296053285198	-0.2782770028794163	-0.2918142742179245	-0.1992070380243938	0.1783185298311936	0.1783185298311996	0.01031423929504582	-0.1714523541431108	0.1036990213052799	0.1863426462257442	-0.1289701044338199	0.05732454581625165	-0.001571978291090053	0.0205880199913366	0.02928838741906652	-0.03736660293526952	0.07091632134852588	-0.09622856852296173	-0.09622856852296033	0.03308626172330561	0.01037232205376755	0.02048818737253368	0.04187168489730864	0.04426665766497125	0.04990400926852534	-0.003768081777866653	-0.1300482315369437	0.0681167689178058	-0.06781844724210884	0.01080745112745808	-10.81673744559909	29.91480746283786	-3.413787811837871	1.371755434025278	-461.5192771370382	-23.39006753737521	-25.46693490972214	-0.07691209607485323	-0.01649986394548032	-0.002180690942922444	0.03524629093191672	0.04269837207871031	-0.02844704779196688	0.1775943322472984	-0.1431510125747325	-0.1431510125747291	0.03656845247460061	0.01590356451793795	-0.09231338881654856	0.0142785206965435	-1.19469791335015e-09	2.629534393941327e-09	-1.121714442652762e-09	1.076915588461362e-09	-1.747352296996834e-09	2.798381664759195e-09	-3.61092348599016e-11
0.53	0.04203638315131667	0.1122790155884859	0.9099566513716588	0.1319373211056848	-0.277982010575508	-0.2921893598725687	-0.1984889832598091	0.1773492122116674	0.1773492122114249	0.01064691510233177	-0.1713478851247679	0.1038993051465164	0.1867620526526896	-0.1297266345499896	0.05714977293989086	-0.001595272084763939	0.02095408427753896	0.02970857110465055	-0.03764804721037059	0.072693861403041	-0.09763195446529972	-0.09763195446529968	0.03344625192806515	0.01052144745932909	0.01956623665788066	0.04200681124801442	0.0438123906600976	0.05024666581865219	-0.003807803956560687	-0.1288259475604704	0.0668179224941305	-0.06770548006447713	0.01102206327474324	-11.22003535828965	29.87599303515027	-3.338645719337341	1.470148846879902	-461.5009388531557	-23.33722544443534	-25.4576546356557	-0.07415401558029427	-0.01842969514204875	-0.002400483463576286	0.03712873453090845	0.0414530870776959	-0.02762075263640173	0.1777183183645505	-0.1384822350497179	-0.1384822350507454	0.03531734635913762	0.01441166718099185	-0.09248765909829901	0.01271105796164167	-1.176902556017968e-09	2.579887110358852e-09	-1.112707815238429e-09	1.06195412802253e-09	-1.73458753092912e-09	2.694648886793324e-09	-3.025581626256451e-11
